<?xml version="1.0" encoding="UTF-8" standalone="no"?>
<!-- Created with Inkscape (http://www.inkscape.org/) -->

<svg
   xmlns:dc="http://purl.org/dc/elements/1.1/"
   xmlns:cc="http://creativecommons.org/ns#"
   xmlns:rdf="http://www.w3.org/1999/02/22-rdf-syntax-ns#"
   xmlns:svg="http://www.w3.org/2000/svg"
   xmlns="http://www.w3.org/2000/svg"
   xmlns:sodipodi="http://sodipodi.sourceforge.net/DTD/sodipodi-0.dtd"
   xmlns:inkscape="http://www.inkscape.org/namespaces/inkscape"
   width="650mm"
   height="167mm"
   viewBox="0 0 650 167"
   version="1.1"
   id="svg8"
   inkscape:version="0.92.4 5da689c313, 2019-01-14"
   sodipodi:docname="blackyoga.svg"
   inkscape:export-filename="/home/mirek/doc/blackyoga.svg.invert.png"
   inkscape:export-xdpi="96"
   inkscape:export-ydpi="96">
  <defs
     id="defs2" />
  <sodipodi:namedview
     id="base"
     pagecolor="#ffffff"
     bordercolor="#666666"
     borderopacity="1.0"
     inkscape:pageopacity="0.0"
     inkscape:pageshadow="2"
     inkscape:zoom="0.35"
     inkscape:cx="1114.9527"
     inkscape:cy="684.78206"
     inkscape:document-units="mm"
     inkscape:current-layer="layer1"
     showgrid="false"
     inkscape:window-width="1916"
     inkscape:window-height="1034"
     inkscape:window-x="2"
     inkscape:window-y="44"
     inkscape:window-maximized="1"
     inkscape:snap-page="true" />
  <metadata
     id="metadata5">
    <rdf:RDF>
      <cc:Work
         rdf:about="">
        <dc:format>image/svg+xml</dc:format>
        <dc:type
           rdf:resource="http://purl.org/dc/dcmitype/StillImage" />
        <dc:title></dc:title>
      </cc:Work>
    </rdf:RDF>
  </metadata>
  <g
     inkscape:label="Layer 1"
     inkscape:groupmode="layer"
     id="layer1"
     transform="translate(0,-130)">
    <rect
       style="stroke-width:3;stroke-linecap:round;stroke-miterlimit:4;stroke-dasharray:none;fill:#111111;fill-opacity:1"
       id="rect917"
       width="650"
       height="167"
       x="0"
       y="130" />
    <path
       style="fill:none;stroke:#fdfdfd;stroke-width:1.83769274;stroke-linecap:round;stroke-linejoin:miter;stroke-miterlimit:4;stroke-dasharray:none;stroke-opacity:1"
       d="m 127.08098,148.64775 c -143.435749,108.01096 0.69459,129.19638 0.69459,129.19638"
       id="path3715"
       inkscape:connector-curvature="0"
       sodipodi:nodetypes="cc" />
    <path
       style="fill:none;stroke:#fdfdfd;stroke-width:1.83769274;stroke-linecap:round;stroke-linejoin:miter;stroke-miterlimit:4;stroke-dasharray:none;stroke-opacity:1"
       d="m 63.524704,230.89695 c -83.352492,14.58668 -30.215279,46.19118 -30.215279,46.19118"
       id="path3717"
       inkscape:connector-curvature="0" />
    <path
       style="fill:none;stroke:#fdfdfd;stroke-width:1.83769274;stroke-linecap:round;stroke-linejoin:miter;stroke-miterlimit:4;stroke-dasharray:none;stroke-opacity:1"
       d="M 80.788069,191.08001 C 74.536641,181.35555 78.70426,173.02029 78.70426,173.02029"
       id="path3719"
       inkscape:connector-curvature="0"
       sodipodi:nodetypes="cc" />
    <path
       style="stroke-width:1.25750673;stroke-linecap:round;stroke-miterlimit:4;stroke-dasharray:none;fill:#fdfdfd;fill-opacity:1"
       id="path4540"
       d="m 96.077519,148.17509 c -1.988893,0.86664 -4.058295,1.52093 -6.121087,2.18434 -2.988874,0.95162 -6.011301,1.78822 -9.086744,2.40742 -2.268682,0.45787 -4.546358,0.84919 -6.8531,1.04436 -1.624503,0.093 -3.246324,0.19741 -4.856637,0.43467 -1.134086,0.14719 -2.259064,0.33746 -3.358854,0.65373 -0.590701,0.1378 -1.004211,0.29575 -1.373338,0.78246 -0.457544,0.57521 -0.804795,1.21013 -1.078216,1.88919 -0.344158,1.11871 0.138696,2.1518 0.579673,3.16531 1.197491,2.31409 3.122947,4.07478 5.028212,5.79819 2.028492,1.85548 4.27359,3.45047 6.59526,4.91424 0.277725,0.16525 0.553799,0.33327 0.833134,0.49575 0.581417,0.33815 1.172502,0.66018 1.772745,0.96367 0.131471,0.0664 0.529992,0.25757 0.396341,0.19559 -0.525881,-0.24377 -1.048713,-0.49407 -1.573059,-0.7411 0.496275,0.15368 0.616185,0.28699 0.756716,-0.23904 0.0496,-0.37696 -0.09235,-0.72723 -0.13119,-1.09739 -0.0138,-0.66964 0.212857,-1.30577 0.436774,-1.92712 0.950872,-1.76387 1.720037,-3.61115 2.477342,-5.46393 0.370517,-0.92498 0.809057,-1.86587 0.762661,-2.88152 -0.17807,-0.81027 -0.636971,-1.52197 -1.080182,-2.21032 -0.946742,-1.39383 -2.175126,-2.57531 -3.402063,-3.72032 -1.942294,-1.63307 -4.23238,-2.7785 -6.484435,-3.91725 -0.877879,-0.43018 -0.955016,-0.47189 -1.790339,-0.86758 -0.220165,-0.10431 -0.881146,-0.41623 -0.66191,-0.30997 2.425943,1.17577 1.447064,0.5754 0.72554,0.51215 -0.143551,0.0134 -0.173396,0.05 -0.21207,0.17685 l -1.940948,-0.8671 v 0 c 0.07222,-0.19083 0.135959,-0.33537 0.347082,-0.40382 1.064445,-0.056 2.284728,0.78536 3.069212,1.13961 0.810675,0.36606 1.598802,0.78162 2.399242,1.16882 2.259341,1.15468 4.558324,2.31596 6.493844,3.97985 1.235805,1.16393 2.475836,2.35916 3.419684,3.77977 0.458206,0.71894 0.955388,1.46474 1.069643,2.32832 0.0019,1.04294 -0.449975,1.99332 -0.853225,2.93674 -0.776045,1.83934 -1.552708,3.67757 -2.439717,5.46648 -0.193568,0.59648 -0.398136,1.21767 -0.364766,1.85306 0.0606,0.39176 0.185702,0.77381 0.101082,1.17485 -0.155257,0.56782 -0.325742,0.7528 -0.937661,0.54241 -1.764678,-0.78731 -3.519426,-1.5645 -5.133758,-2.63911 -2.30129,-1.47716 -4.525272,-3.08126 -6.542388,-4.93391 -1.926467,-1.75558 -3.874306,-3.55115 -5.077311,-5.90541 -0.460899,-1.07102 -0.928448,-2.15875 -0.550511,-3.3311 0.28055,-0.69509 0.629437,-1.34685 1.087281,-1.94402 0.391515,-0.5404 0.792039,-0.76335 1.453138,-0.89516 1.110101,-0.32553 2.248391,-0.52052 3.395336,-0.66549 1.622353,-0.23902 3.254633,-0.35554 4.892839,-0.42887 2.313979,-0.18046 4.598902,-0.55593 6.875796,-1.00433 3.078628,-0.60097 6.105426,-1.41707 9.091665,-2.3772 2.023498,-0.67115 4.061307,-1.32113 5.994327,-2.22969 0.61632,0.33764 1.23262,0.67529 1.84894,1.01292 z"
       inkscape:connector-curvature="0"
       sodipodi:nodetypes="cccccccccccccccccccccccccccccccccccccccccccccccccccc" />
    <g
       id="layer1-1"
       inkscape:label="Vrstva 1"
       transform="matrix(7.15883,0,0,7.15883,-163.09573,-755.158)"
       style="fill:#fdfdfd;fill-opacity:1">
      <g
         id="text12"
         style="font-style:normal;font-variant:normal;font-weight:normal;font-stretch:normal;font-size:10.58333302px;line-height:1.25;font-family:Sawasdee;-inkscape-font-specification:Sawasdee;letter-spacing:0px;word-spacing:0px;fill:#fdfdfd;fill-opacity:1;stroke:none;stroke-width:0.26458332"
         aria-label="BLACK YOGA">
        <path
           id="path33"
           style="font-style:normal;font-variant:normal;font-weight:normal;font-stretch:normal;font-family:Sawasdee;-inkscape-font-specification:Sawasdee;stroke-width:0.26458332;fill:#fdfdfd;fill-opacity:1"
           d="m 44.422539,143.83253 h 2.242757 q 0.852661,0 1.436605,-0.52709 0.583943,-0.53227 0.583943,-1.27124 0,-0.73898 -0.583943,-1.26608 -0.583944,-0.53226 -1.436605,-0.53226 h -2.242757 z m 3.674194,-5.41052 q 0,-0.5581 -0.444417,-0.96635 -0.43925,-0.40824 -1.085205,-0.40824 h -2.144572 v 2.72851 h 2.144572 q 0.651123,0 1.090372,-0.39274 0.43925,-0.3979 0.43925,-0.96118 z m -4.139282,-1.83968 h 2.651001 q 0.806152,0 1.390096,0.54777 0.583943,0.5426 0.583943,1.30225 0,0.47542 -0.253214,0.8785 -0.248047,0.40307 -0.671794,0.65112 0.671794,0.25838 1.080038,0.81649 0.413411,0.5581 0.413411,1.25574 0,0.61494 -0.335897,1.13688 -0.335896,0.52193 -0.909505,0.82682 -0.568441,0.29972 -1.240234,0.29972 h -2.707845 z"
           inkscape:connector-curvature="0" />
        <path
           id="path35"
           style="font-style:normal;font-variant:normal;font-weight:normal;font-stretch:normal;font-family:Sawasdee;-inkscape-font-specification:Sawasdee;stroke-width:0.26458332;fill:#fdfdfd;fill-opacity:1"
           d="m 55.11956,144.29762 h -4.485514 v -7.71529 h 0.465087 v 7.2502 h 4.020427 z"
           inkscape:connector-curvature="0" />
        <path
           id="path37"
           style="font-style:normal;font-variant:normal;font-weight:normal;font-stretch:normal;font-family:Sawasdee;-inkscape-font-specification:Sawasdee;stroke-width:0.26458332;fill:#fdfdfd;fill-opacity:1"
           d="m 57.315809,141.43992 h 3.110921 l -1.560629,-3.74655 z m 3.296956,0.46508 H 57.0936 l -0.981852,2.39262 h -0.496094 l 3.234945,-7.80831 3.245279,7.80831 h -0.496093 z"
           inkscape:connector-curvature="0" />
        <path
           id="path39"
           style="font-style:normal;font-variant:normal;font-weight:normal;font-stretch:normal;font-family:Sawasdee;-inkscape-font-specification:Sawasdee;stroke-width:0.26458332;fill:#fdfdfd;fill-opacity:1"
           d="m 69.511446,142.50962 0.372071,0.25321 q -0.537435,0.73898 -1.364258,1.16789 -0.826823,0.42375 -1.782837,0.42375 -0.795817,0 -1.519287,-0.31006 -0.72347,-0.31006 -1.245402,-0.83716 -0.521932,-0.5271 -0.83199,-1.25574 -0.310059,-0.72863 -0.310059,-1.52962 0,-0.80098 0.310059,-1.52962 0.310058,-0.72864 0.83199,-1.25574 0.521932,-0.5271 1.245402,-0.83716 0.72347,-0.31006 1.519287,-0.31006 0.950846,0 1.777669,0.43409 0.826823,0.42891 1.369426,1.17305 l -0.372071,0.27389 q -0.48059,-0.64596 -1.209228,-1.01803 -0.72347,-0.37724 -1.565796,-0.37724 -0.940511,0 -1.736328,0.46509 -0.790649,0.46509 -1.25057,1.26607 -0.45992,0.79582 -0.45992,1.7415 0,0.7028 0.268718,1.34359 0.273885,0.64078 0.733805,1.10587 0.45992,0.46509 1.100708,0.74414 0.640788,0.27389 1.343587,0.27389 0.842326,0 1.565796,-0.37724 0.728638,-0.37724 1.209228,-1.02836 z"
           inkscape:connector-curvature="0" />
        <path
           id="path41"
           style="font-style:normal;font-variant:normal;font-weight:normal;font-stretch:normal;font-family:Sawasdee;-inkscape-font-specification:Sawasdee;stroke-width:0.26458332;fill:#fdfdfd;fill-opacity:1"
           d="m 71.366631,136.58233 h 0.465087 v 3.27629 l 3.581177,-3.27629 h 0.692464 l -3.121256,2.84737 3.400309,4.86792 h -0.599447 l -3.121256,-4.56819 -0.831991,0.75964 v 3.80855 h -0.465087 z"
           inkscape:connector-curvature="0" />
        <path
           id="path43"
           style="font-style:normal;font-variant:normal;font-weight:normal;font-stretch:normal;font-family:Sawasdee;-inkscape-font-specification:Sawasdee;stroke-width:0.26458332;fill:#fdfdfd;fill-opacity:1"
           d="m 80.39967,136.58233 h 0.542602 l 2.449463,3.88607 2.45463,-3.88607 H 86.3838 l -2.759521,4.38216 v 3.33313 h -0.45992 v -3.33313 z"
           inkscape:connector-curvature="0" />
        <path
           id="path45"
           style="font-style:normal;font-variant:normal;font-weight:normal;font-stretch:normal;font-family:Sawasdee;-inkscape-font-specification:Sawasdee;stroke-width:0.26458332;fill:#fdfdfd;fill-opacity:1"
           d="m 89.132987,136.82521 q 0.72347,-0.31006 1.519287,-0.31006 0.795817,0 1.519287,0.31006 0.728637,0.31006 1.250569,0.83716 0.5271,0.5271 0.837159,1.25574 0.310058,0.72863 0.310058,1.52962 0,0.80098 -0.310058,1.52962 -0.310059,0.72347 -0.837159,1.25057 -0.521932,0.5271 -1.250569,0.83716 -0.72347,0.31006 -1.519287,0.31006 -0.795817,0 -1.519287,-0.31006 -0.72347,-0.31006 -1.245402,-0.83716 -0.521932,-0.5271 -0.831991,-1.25057 -0.310058,-0.72864 -0.310058,-1.52962 0,-0.80099 0.310058,-1.52962 0.310059,-0.72864 0.831991,-1.25574 0.521932,-0.5271 1.245402,-0.83716 z m -1.927531,3.62252 q 0,0.7028 0.268717,1.34359 0.273885,0.64078 0.733806,1.10587 0.45992,0.46509 1.100707,0.74414 0.640788,0.27389 1.343588,0.27389 0.707967,0 1.348755,-0.27389 0.640787,-0.27905 1.100707,-0.74414 0.459921,-0.46509 0.733806,-1.10587 0.273885,-0.64079 0.273885,-1.34359 0,-0.94568 -0.45992,-1.7415 -0.459921,-0.80098 -1.260905,-1.26607 -0.795817,-0.46509 -1.736328,-0.46509 -0.940511,0 -1.736328,0.46509 -0.79065,0.46509 -1.25057,1.26607 -0.45992,0.79582 -0.45992,1.7415 z"
           inkscape:connector-curvature="0" />
        <path
           id="path47"
           style="font-style:normal;font-variant:normal;font-weight:normal;font-stretch:normal;font-family:Sawasdee;-inkscape-font-specification:Sawasdee;stroke-width:0.26458332;fill:#fdfdfd;fill-opacity:1"
           d="m 102.89442,138.09645 -0.37207,0.27389 q -0.48059,-0.64596 -1.20923,-1.01803 -0.72347,-0.37724 -1.565796,-0.37724 -0.940511,0 -1.736328,0.46509 -0.790649,0.46509 -1.250569,1.26607 -0.45992,0.79582 -0.45992,1.7415 0,0.7028 0.268717,1.34359 0.273885,0.64078 0.733805,1.10587 0.459921,0.46509 1.100708,0.74414 0.640788,0.27389 1.343587,0.27389 0.899166,0 1.674316,-0.42892 0.77515,-0.43408 1.2454,-1.17822 0.47026,-0.74414 0.5271,-1.63298 h -3.446816 v -0.45992 h 3.917076 v 0.23255 q 0,0.80098 -0.31006,1.52962 -0.31006,0.72347 -0.83716,1.25057 -0.52193,0.5271 -1.25057,0.83716 -0.72347,0.31006 -1.519286,0.31006 -0.795817,0 -1.519287,-0.31006 -0.72347,-0.31006 -1.245402,-0.83716 -0.521932,-0.5271 -0.83199,-1.25057 -0.310059,-0.72864 -0.310059,-1.52962 0,-0.80099 0.310059,-1.52962 0.310058,-0.72864 0.83199,-1.25574 0.521932,-0.5271 1.245402,-0.83716 0.72347,-0.31006 1.519287,-0.31006 0.945676,0 1.777666,0.42375 0.83199,0.42375 1.36943,1.15755 z"
           inkscape:connector-curvature="0" />
        <path
           id="path49"
           style="font-style:normal;font-variant:normal;font-weight:normal;font-stretch:normal;font-family:Sawasdee;-inkscape-font-specification:Sawasdee;stroke-width:0.26458332;fill:#fdfdfd;fill-opacity:1"
           d="m 106.18104,141.43992 h 3.11092 l -1.56062,-3.74655 z m 3.29696,0.46508 h -3.51917 l -0.98185,2.39262 h -0.49609 l 3.23494,-7.80831 3.24528,7.80831 h -0.49609 z"
           inkscape:connector-curvature="0" />
      </g>
    </g>
  </g>
</svg>
