<?xml version="1.0" encoding="UTF-8" standalone="no"?>
<!-- Created with Inkscape (http://www.inkscape.org/) -->

<svg
   xmlns:dc="http://purl.org/dc/elements/1.1/"
   xmlns:cc="http://creativecommons.org/ns#"
   xmlns:rdf="http://www.w3.org/1999/02/22-rdf-syntax-ns#"
   xmlns:svg="http://www.w3.org/2000/svg"
   xmlns="http://www.w3.org/2000/svg"
   xmlns:sodipodi="http://sodipodi.sourceforge.net/DTD/sodipodi-0.dtd"
   xmlns:inkscape="http://www.inkscape.org/namespaces/inkscape"
   width="210mm"
   height="297mm"
   viewBox="0 0 210 297"
   version="1.1"
   id="svg8"
   sodipodi:docname="flower.svg"
   inkscape:version="0.92.4 5da689c313, 2019-01-14">
  <defs
     id="defs2" />
  <sodipodi:namedview
     id="base"
     pagecolor="#ffffff"
     bordercolor="#666666"
     borderopacity="1.0"
     inkscape:pageopacity="0.0"
     inkscape:pageshadow="2"
     inkscape:zoom="0.7"
     inkscape:cx="459.54443"
     inkscape:cy="539.74805"
     inkscape:document-units="mm"
     inkscape:current-layer="layer1"
     showgrid="false"
     inkscape:window-width="956"
     inkscape:window-height="1034"
     inkscape:window-x="2"
     inkscape:window-y="44"
     inkscape:window-maximized="1"
     inkscape:pagecheckerboard="true" />
  <metadata
     id="metadata5">
    <rdf:RDF>
      <cc:Work
         rdf:about="">
        <dc:format>image/svg+xml</dc:format>
        <dc:type
           rdf:resource="http://purl.org/dc/dcmitype/StillImage" />
        <dc:title></dc:title>
      </cc:Work>
    </rdf:RDF>
  </metadata>
  <g
     inkscape:label="Vrstva 1"
     inkscape:groupmode="layer"
     id="layer1">
    <path
       id="path93"
       d="m 187.45209,275.4919 c -7.69229,-2.4504 -14.67918,-6.64635 -21.65964,-10.61191 -11.70777,-6.90248 -22.47646,-15.21503 -33.21831,-23.50021 -5.21546,-4.14451 -10.34445,-8.41629 -15.13221,-13.05425 -2.08053,-2.01542 -4.03162,-4.07699 -6.03923,-6.16236 -5.27752,-5.38487 -10.41236,-10.90211 -15.237928,-16.69584 -3.322604,-4.11739 -6.504647,-8.3666 -9.107262,-12.98393 -1.72947,-3.06827 -1.959812,-3.77686 -3.402893,-6.98884 -2.10681,-5.39966 -4.084989,-10.86748 -5.580729,-16.47271 -1.115653,-4.18087 -1.226325,-5.17862 -2.037093,-9.42847 -1.849615,-11.05618 -1.697189,-22.30275 -1.970251,-33.4727 -0.179625,-8.85307 -0.228538,-4.50818 0.11744,-13.03497 0,0 5.177259,-2.60753 5.177259,-2.60753 v 0 c -0.451507,8.52284 -0.369825,4.17849 -0.210848,13.03366 0.369125,11.09871 0.456218,22.26257 2.182666,33.25646 0.796054,4.20597 0.905925,5.23413 2.025935,9.366 1.509047,5.56707 3.536391,10.98294 5.63922,16.34706 1.447788,3.22587 1.637256,3.84056 3.366712,6.92589 2.576798,4.59697 5.724019,8.83345 9.069852,12.89451 4.84045,5.75725 9.95505,11.26974 15.16898,16.69035 2.10929,2.22299 3.77129,4.01542 5.97261,6.16515 4.74153,4.63041 9.80412,8.92399 14.93439,13.11332 10.62256,8.38405 21.34233,16.72306 33.11715,23.45862 7.11918,3.88727 14.30739,8.05863 22.24655,10.02257 0,0 -5.42237,3.74013 -5.42237,3.74013 z"
       inkscape:connector-curvature="0"
       style="fill:#111111;fill-opacity:1;stroke-width:0.31172362" />
    <path
       id="path95"
       d="m 73.324766,103.92713 c 2.656951,1.61742 5.622446,2.67433 8.507531,3.81123 3.487108,1.47971 6.91458,3.07594 10.514025,4.26939 2.679746,0.76434 5.463322,1.28823 8.257958,1.24132 0.87976,-0.0481 1.79308,-0.12894 2.64,-0.39435 1.58427,-0.49645 7.32112,-3.93014 -2.31999,1.45964 2.6474,-1.80373 4.65578,-3.75156 6.29635,-6.50626 1.24114,-2.37003 1.37227,-4.94179 1.08131,-7.54489 -0.28847,-1.195443 -0.61471,-3.323663 -1.65628,-4.147627 -0.22713,-0.179681 -0.49699,-0.297498 -0.74547,-0.446242 -3.87084,-1.270207 -8.036178,-1.075974 -12.046871,-0.831256 -3.379243,0.177997 -6.638582,1.041452 -9.931917,1.722846 -2.799175,0.459862 -5.610783,0.70425 -8.445653,0.615534 -1.831848,-0.02709 -3.603812,-0.505446 -5.404303,-0.755359 -0.839456,-0.116521 -1.720116,-0.144832 -2.564323,-0.189827 -2.769636,-0.201207 -5.499759,0.0035 -8.188078,0.681265 -0.521654,0.190615 -1.259639,0.436217 -1.766349,0.703943 -0.198368,0.104739 -0.759895,0.476769 -0.564403,0.366681 12.869891,-7.247088 5.960106,-4.07275 4.837713,-2.620057 0.08574,0.297818 0.535842,0.70557 0.738964,0.912421 0.63677,0.648428 1.305114,1.265423 1.972253,1.882123 0.202926,0.150275 0.379296,0.345474 0.608781,0.450827 0.991364,0.455125 2.365745,-0.167678 3.309245,-0.391966 2.774404,-0.659526 1.703377,-0.430066 4.858995,-0.853429 4.075684,-0.246555 2.005023,-0.25128 6.21187,0.04018 0,0 -5.061154,3.633223 -5.061154,3.633223 v 0 c -4.182465,-0.18744 -2.122065,-0.22702 -6.181574,0.0974 -0.926171,0.15333 -1.857944,0.27599 -2.77851,0.46001 -1.494048,0.29865 -3.470953,1.14114 -5.038115,0.87324 -0.712829,-0.12184 -0.989657,-0.44505 -1.511738,-0.86503 -0.663768,-0.63481 -1.336157,-1.26115 -1.993944,-1.902164 -0.282549,-0.275338 -0.771234,-0.724279 -0.987815,-1.089181 -0.0836,-0.140861 -0.116155,-0.306312 -0.174228,-0.459474 0.549863,-2.619974 4.448359,-3.223703 6.312367,-4.307099 0.7348,-0.427074 1.58113,-0.630485 2.384436,-0.876487 2.731094,-0.581979 5.499649,-0.708656 8.286919,-0.520986 1.082448,0.07293 1.560464,0.08236 2.627544,0.243092 1.760542,0.265217 3.499385,0.69903 5.294088,0.703861 2.819929,0.02474 5.625416,-0.260446 8.400527,-0.764831 3.257534,-0.690866 6.513725,-1.388189 9.854523,-1.543813 3.62857,-0.179776 7.60749,-0.39445 11.15389,0.571436 0.44306,0.120679 0.86216,0.316491 1.29323,0.47473 0.28845,0.196896 0.60347,0.359612 0.86535,0.590675 1.17452,1.036352 1.41945,3.107889 1.78088,4.525673 0.33476,2.708337 0.28714,5.402298 -0.90723,7.920208 -0.60681,1.10037 -0.75057,1.46349 -1.54772,2.47343 -1.3157,1.66692 -2.94266,3.0507 -4.63332,4.31913 -2.24481,1.32433 -4.47301,2.67723 -6.73442,3.973 -1.501361,0.86025 -3.209648,1.16923 -4.921053,1.15327 -2.809865,-0.11382 -5.595835,-0.62973 -8.277046,-1.47752 -3.585738,-1.24669 -7.029831,-2.82549 -10.525271,-4.29958 -2.95041,-1.16842 -5.959705,-2.25362 -8.737429,-3.80219 0,0 5.555455,-3.58017 5.555455,-3.58017 z"
       inkscape:connector-curvature="0"
       style="fill:#111111;fill-opacity:1;stroke-width:0.31172362" />
    <path
       id="path97"
       d="m 72.621474,85.642211 c -5.17566,0.248641 -10.334911,0.681547 -15.483675,1.260275 -3.220307,0.456976 -6.478296,0.849942 -9.627353,1.69774 -1.461946,0.393591 -1.766282,0.563082 -3.13396,1.116785 -2.03637,1.073417 -7.074425,3.537297 2.294454,-1.422037 0.262062,-0.138729 -0.486685,0.342635 -0.701275,0.54726 -0.556686,0.530835 -0.570009,0.706488 -0.911337,1.387917 -0.533555,1.609555 -0.628357,3.32307 -0.447173,4.999285 0.245191,1.897593 1.831562,3.312384 3.11861,4.593194 2.173493,2.04947 4.690599,3.67749 7.407857,4.91358 1.92632,0.87629 2.970608,1.15206 4.984838,1.80655 5.322702,1.54254 10.795129,2.45771 16.262488,3.30651 6.163679,1.05997 12.426466,1.18983 18.630199,1.87698 4.563189,0.51074 8.761293,2.37397 12.881763,4.2826 2.10634,0.92793 4.14291,2.22854 6.44293,2.64743 0.41535,0.0756 0.83936,0.0917 1.25904,0.13752 3.98947,0.12321 7.89788,-0.69444 11.69623,-1.83295 2.05766,-0.72452 4.10644,-1.50358 6.04204,-2.51828 0.54774,-0.28715 2.15333,-1.21714 1.60731,-0.92674 -4.33674,2.30648 -5.42168,3.38481 -3.11159,1.36914 0.28508,-0.37771 0.6206,-0.72219 0.85527,-1.13313 1.62726,-2.84967 0.72031,-6.03149 -0.11845,-8.95524 -1.03558,-2.8899 -2.32901,-5.716851 -4.08872,-8.245 -1.10941,-1.593873 -1.71586,-2.173225 -3.02024,-3.619521 -2.29196,-2.245647 -4.82007,-4.249428 -7.61689,-5.831614 -1.69438,-0.958533 -2.13853,-1.093846 -3.91207,-1.858077 -0.6539,-0.259539 -1.30488,-0.526593 -1.96172,-0.778604 -1.62394,-0.623051 -2.07675,-0.709799 -3.62778,-1.447568 -1.55065,-0.737592 -2.99574,-1.62302 -4.41091,-2.587941 -1.65434,-1.187922 -3.19161,-2.558827 -5.040967,-3.450135 -1.206545,-0.581508 -1.560857,-0.615581 -2.860934,-0.975971 -3.67459,-0.659998 -7.378794,0.117864 -10.921661,1.094966 -2.098383,0.529952 -4.16003,1.225542 -6.096907,2.199216 -0.448716,0.225572 -1.757135,0.973532 -1.321929,0.722888 1.392248,-0.801837 2.795512,-1.584377 4.193269,-2.376565 -0.450004,0.289358 -0.900005,0.578728 -1.350009,0.868086 0,0 -6.01277,2.345874 -6.01277,2.345874 v 0 c 0.445828,-0.295331 0.891652,-0.590675 1.33748,-0.886006 5.111494,-2.976677 8.718195,-5.501479 14.346276,-6.78064 3.637231,-0.920255 7.424289,-1.641742 11.155462,-0.833377 1.38075,0.421584 1.68002,0.444817 2.95394,1.095908 1.8371,0.938929 3.38976,2.308586 5.05953,3.49817 1.38673,0.935241 2.79246,1.794055 4.30952,2.508473 1.46724,0.690948 2.05895,0.849577 3.59101,1.453105 0.65884,0.259539 1.31225,0.532662 1.96839,0.798999 0.66198,0.296615 1.33543,0.568842 1.98592,0.889846 3.59974,1.776347 6.79397,4.249535 9.65598,7.046565 1.36265,1.511082 1.92904,2.041282 3.08639,3.708401 1.78863,2.576394 3.10441,5.456615 4.19048,8.387092 0.92727,3.05864 1.9064,6.33559 0.46447,9.42208 -0.21063,0.45085 -0.53019,0.84226 -0.7953,1.2634 -2.90231,2.8376 -0.83477,0.97306 -7.88,5.12072 -2.4096,1.41858 -5.04412,2.40735 -7.68694,3.29082 -3.89064,1.10113 -7.90082,1.92253 -11.96846,1.70271 -0.44293,-0.068 -0.89134,-0.10686 -1.32878,-0.20414 -2.28858,-0.50885 -4.30716,-1.83952 -6.41633,-2.79163 -4.038512,-1.91873 -8.181117,-3.68373 -12.673656,-4.17285 -6.196784,-0.69742 -12.443913,-0.92735 -18.607923,-1.92463 -5.505175,-0.83953 -11.012941,-1.7631 -16.356798,-3.36759 -0.859232,-0.28663 -1.728692,-0.54426 -2.577699,-0.8599 -3.708223,-1.37863 -7.172127,-3.35457 -10.110001,-6.01661 -1.404764,-1.3541 -3.165492,-2.88605 -3.446242,-4.925213 -0.183774,-1.775993 -0.112209,-3.572264 0.328837,-5.310227 0.250941,-0.708597 0.309854,-1.075125 0.793704,-1.665929 0.199024,-0.243021 0.417997,-0.481753 0.68516,-0.646944 2.880897,-1.781331 5.762009,-3.579994 8.873256,-4.924684 4.07854,-1.489122 8.396555,-2.041117 12.690834,-2.554998 5.250555,-0.569009 10.514495,-0.965969 15.772231,-1.452799 0,0 -5.298719,3.917455 -5.298719,3.917455 z"
       inkscape:connector-curvature="0"
       style="fill:#111111;fill-opacity:1;stroke-width:0.31172362" />
    <path
       id="path99"
       d="m 63.02534,70.552259 c -4.616949,0.431998 -9.236684,0.821536 -13.833033,1.441499 -3.893016,0.616029 -7.641599,1.860163 -11.241003,3.439179 -0.482947,0.24037 -0.973427,0.466166 -1.44884,0.72111 -0.446229,0.239298 -1.755131,1.010739 -1.314722,0.760896 1.447105,-0.820924 2.86528,-1.694158 4.334838,-2.474177 0.397904,-0.211198 -0.751022,0.498283 -1.114253,0.764738 -0.840753,0.616735 -1.236454,0.985231 -2.022736,1.663938 -1.407083,1.254113 -2.620979,2.65737 -3.165691,4.478511 -0.33949,2.774716 0.295579,5.569025 0.920757,8.260856 0.530903,2.590568 1.916568,4.262364 3.561439,6.247447 2.857499,3.250084 5.234273,6.972864 8.460227,9.891684 0.672169,0.60818 1.416069,1.13204 2.124102,1.69805 4.016977,2.7218 8.784629,3.3377 13.494837,3.84052 19.82106,2.11595 -11.022889,-1.34762 11.440903,1.20221 0,0 -4.730621,3.36108 -4.730621,3.36108 v 0 c -2.082638,-0.20639 -4.163812,-0.42815 -6.247918,-0.61917 -5.610626,-0.51427 -11.584759,-0.52188 -16.800618,-2.96498 -0.872917,-0.40888 -1.658046,-0.98364 -2.487069,-1.47546 -0.719084,-0.58836 -1.473786,-1.13571 -2.157258,-1.76509 -3.212737,-2.9585 -5.637831,-6.66923 -8.610783,-9.849425 -1.879189,-2.141003 -3.182465,-3.63307 -3.752723,-6.499635 -0.601111,-2.785696 -1.265245,-5.62289 -1.13283,-8.490151 0.05634,-0.285104 0.08919,-0.575876 0.169035,-0.855302 0.461163,-1.613832 1.776552,-2.845641 2.896813,-4.013277 0.768968,-0.690465 1.187881,-1.089982 2.005009,-1.728914 3.227631,-2.523778 6.969353,-4.336283 10.629749,-6.146715 3.625891,-1.505357 7.380738,-2.71113 11.282858,-3.250017 4.658024,-0.581309 9.341512,-0.928132 13.994424,-1.552144 0,0 -5.254893,3.912739 -5.254893,3.912739 z"
       inkscape:connector-curvature="0"
       style="fill:#111111;fill-opacity:1;stroke-width:0.31172362" />
    <path
       id="path101"
       d="m 75.223528,63.907609 c 4.754748,-1.740809 9.433978,-3.677167 14.166501,-5.476689 5.907877,-2.406487 12.214381,-3.103719 18.517651,-3.538175 5.05163,-0.303576 10.14595,-0.302335 15.14896,0.549428 0.98979,0.168512 1.96808,0.398724 2.95211,0.598083 5.06978,1.30657 10.25079,2.947054 15.02485,5.113851 0.9198,0.417475 1.81287,0.891539 2.7193,1.337307 4.60586,2.293073 8.25931,5.853768 11.71483,9.58061 1.88383,1.999564 3.57691,4.156589 5.10854,6.433693 1.52445,2.469818 2.7981,5.09368 3.90464,7.774343 1.15466,2.929149 1.3857,5.570437 1.23871,8.675016 -0.18186,2.605342 -0.92435,5.111674 -1.7468,7.574564 -0.54238,1.74878 -1.12168,3.50776 -2.32384,4.93016 -0.26256,0.31067 -0.56384,0.58646 -0.84576,0.87968 -1.5747,1.39964 -3.2847,2.653 -5.10946,3.70847 -7.21474,4.1731 -4.82434,3.01059 -9.11856,4.9746 -4.95396,1.8799 -10.28654,2.43511 -15.55568,2.41109 -1.45016,-0.007 -2.89885,-0.0932 -4.34828,-0.1398 -10.73939,-0.75454 -21.32122,-2.88069 -31.787505,-5.31664 0,0 4.773243,-3.30838 4.773243,-3.30838 v 0 c 10.526222,2.30984 21.144612,4.4899 31.931462,5.07145 1.45599,0.0269 2.91183,0.0962 4.36801,0.0808 5.30968,-0.0559 10.6723,-0.73396 15.6092,-2.77065 3.19474,-1.542 2.71789,-1.37895 -1.87065,1.31634 -0.50404,0.29607 1.01221,-0.58571 1.5059,-0.89873 0.86358,-0.54757 1.71614,-1.16421 2.52479,-1.79043 0.3584,-0.27754 0.7057,-0.56915 1.05854,-0.85372 0.28893,-0.26374 0.59625,-0.50868 0.8668,-0.79124 1.26981,-1.3261 1.91044,-3.01665 2.435,-4.74164 0.82819,-2.41584 1.60457,-4.86331 1.83591,-7.421914 0.0533,-0.849353 0.13684,-1.864368 0.10992,-2.715854 -0.0619,-1.959847 -0.53473,-3.878741 -1.1879,-5.718945 -1.07798,-2.645365 -2.36826,-5.212333 -3.89053,-7.631431 -1.50483,-2.246625 -3.14004,-4.406289 -4.95258,-6.415608 -3.33448,-3.724861 -6.94612,-7.196394 -11.47216,-9.45304 -0.89462,-0.438308 -1.7759,-0.904976 -2.68386,-1.314925 -4.79476,-2.164852 -9.86778,-3.754714 -14.96938,-4.999932 -0.97876,-0.187234 -1.95228,-0.404171 -2.93623,-0.561697 -4.96979,-0.795628 -10.02511,-0.782361 -15.03555,-0.473982 -6.400859,0.482529 -12.42755,1.250394 -18.429672,3.700657 -4.819186,1.850604 -9.605528,3.785513 -14.401666,5.6943 0,0 5.151207,-4.07108 5.151207,-4.07108 z"
       inkscape:connector-curvature="0"
       style="fill:#111111;fill-opacity:1;stroke-width:0.31172362" />
    <path
       id="path103"
       d="M 92.280626,56.990798 C 88.311425,56.279024 84.511611,54.912891 80.702438,53.629251 75.156663,51.878549 69.522763,50.41468 63.876407,49.027413 59.062808,47.99469 54.337336,46.617024 49.582866,45.352247 46.718328,44.626839 43.784382,44.112628 40.819052,44.14776 c -1.962485,0.02325 -2.451392,0.162232 -4.380459,0.448685 -2.685446,0.530005 -5.288501,1.408636 -7.739122,2.627175 -0.535846,0.266444 -2.099799,1.148468 -1.584081,0.844884 1.346039,-0.792361 2.717258,-1.541146 4.07589,-2.311718 -2.609117,1.684234 -4.783888,3.913254 -6.890926,6.169685 -1.741331,1.788053 -3.330426,3.70774 -4.650588,5.8265 -0.573096,0.940571 -0.417526,1.908201 -0.254476,2.944203 0.493278,3.134228 -0.103148,-0.864556 0.403934,2.587542 0.419385,2.332472 0.29933,4.746098 0.85605,7.051514 0.63201,1.983481 1.521757,3.877822 2.321988,5.799508 0.870461,2.320036 1.651419,4.671271 2.359231,7.045999 0.756778,2.530693 1.51979,5.059667 2.315362,7.578554 0.709991,2.297522 1.569404,4.545667 2.486847,6.76735 0.92854,2.447327 2.480584,4.472429 4.295614,6.322679 3.6037,3.17604 8.263977,4.41595 12.77022,5.72559 7.645836,2.16359 15.572353,2.76748 23.441845,3.54284 4.745122,0.50872 2.442837,0.24406 6.907527,0.78809 0,0 -5.080715,3.59424 -5.080715,3.59424 v 0 c -4.397803,-0.58064 -2.125846,-0.30024 -6.816816,-0.83351 -7.918154,-0.82892 -15.90014,-1.45316 -23.612248,-3.5594 -4.638859,-1.32735 -9.420825,-2.61736 -13.123926,-5.88545 -1.878975,-1.90923 -3.502974,-3.9828 -4.469547,-6.51156 -0.917771,-2.241655 -1.781669,-4.507072 -2.502402,-6.820724 -0.801722,-2.522364 -1.525343,-5.067489 -2.296786,-7.599113 -0.715891,-2.347688 -1.49713,-4.671778 -2.389622,-6.958602 -0.785759,-1.963123 -1.667579,-3.887731 -2.372074,-5.879601 -0.593998,-2.328555 -0.371846,-4.777047 -0.823815,-7.13685 -0.255873,-1.612713 -0.150168,-1.033175 -0.441999,-2.554205 -0.217762,-1.134983 -0.519075,-2.262357 0.0251,-3.354471 1.305644,-2.188368 2.929772,-4.154095 4.695349,-5.988008 2.10989,-2.287631 4.258706,-4.566997 6.83403,-6.344234 5.726448,-3.320205 9.879897,-6.187711 16.362648,-7.292839 1.974451,-0.245832 2.440428,-0.368766 4.444254,-0.355288 2.992901,0.02014 5.949706,0.569077 8.835824,1.324424 4.733742,1.272019 9.440603,2.646868 14.229445,3.705574 5.655687,1.418913 11.29886,2.909494 16.870792,4.630112 3.843021,1.256991 7.696575,2.639483 11.74083,3.074867 0,0 -5.3816,3.828596 -5.381599,3.828596 z"
       inkscape:connector-curvature="0"
       style="fill:#111111;fill-opacity:1;stroke-width:0.31172362" />
    <path
       id="path105"
       d="m 75.887689,34.546606 c 5.521246,-1.765664 11.124039,-3.337373 16.817833,-4.445903 1.499789,-0.291994 3.011,-0.521909 4.516503,-0.782865 5.784685,-0.73741 11.621215,-1.269849 17.458715,-1.268151 2.98127,9.36e-4 4.15839,0.131919 7.07487,0.336446 2.73877,0.263734 5.45425,0.733545 8.06845,1.607344 2.35573,0.787399 4.58439,1.902444 6.82101,2.968177 4.63014,2.349388 9.39027,4.424632 14.07812,6.651733 4.96098,2.33342 9.78031,4.966425 14.42986,7.869316 2.66199,1.780388 5.22078,3.74065 7.5316,5.963507 1.10047,1.058583 2.10887,2.187885 3.14172,3.310396 1.76425,2.039318 3.40471,4.21014 4.58603,6.645574 0.83875,1.729178 0.89562,2.095334 1.50779,3.922509 1.03035,3.858761 1.46343,7.844656 1.87646,11.807696 0.33252,3.539311 0.40052,7.126904 -0.85547,10.518908 -1.25351,3.385289 -2.38507,4.734752 -4.38301,7.84217 -3.43883,4.837717 -7.4243,9.268167 -11.9177,13.150937 -1.55484,1.34355 -3.22245,2.5508 -4.83367,3.8262 0,0 -5.39769,2.16043 -5.39769,2.16043 v 0 c 1.61772,-1.25987 3.29223,-2.45003 4.85319,-3.77962 4.46429,-3.80263 8.42049,-8.15739 11.80387,-12.944458 1.92451,-2.987045 3.03985,-4.330781 4.26362,-7.577517 1.24618,-3.306117 1.13988,-6.777978 0.78478,-10.227513 -0.40478,-3.921615 -0.79632,-7.871682 -1.78741,-11.69671 -0.21711,-0.653555 -0.40467,-1.317688 -0.65135,-1.960659 -1.19699,-3.119902 -3.12972,-5.862964 -5.29227,-8.384802 -1.0387,-1.136117 -1.98041,-2.202554 -3.09305,-3.270473 -2.28719,-2.195251 -4.83056,-4.115515 -7.46074,-5.876976 -4.61714,-2.905342 -9.39825,-5.5532 -14.36141,-7.824138 -4.70311,-2.202524 -9.45775,-4.295408 -14.0933,-6.641091 -2.22357,-1.033856 -4.43906,-2.113283 -6.77559,-2.876745 -2.56053,-0.836663 -5.21591,-1.306743 -7.89263,-1.570757 -2.94581,-0.214291 -3.94833,-0.336904 -6.96652,-0.343044 -5.79871,-0.01178 -11.598225,0.507862 -17.338097,1.293549 -1.504255,0.270732 -3.014612,0.5095 -4.512759,0.8122 -5.825934,1.177111 -11.55729,2.833673 -17.164503,4.795247 0,0 5.162748,-4.010917 5.162748,-4.010917 z"
       inkscape:connector-curvature="0"
       style="fill:#111111;fill-opacity:1;stroke-width:0.31172362" />
    <path
       id="path107"
       d="m 98.925867,24.526278 c -2.673419,-1.91889 -5.453069,-3.70377 -8.633825,-4.664518 -0.93878,-0.283556 -1.90964,-0.447342 -2.864463,-0.671016 -5.902193,-0.811828 -11.793521,0.260197 -17.581316,1.353685 -4.394445,0.71578 -8.716615,1.786145 -13.029998,2.875339 -5.206878,1.341606 -10.243963,3.261693 -15.032665,5.698075 1.186168,-0.67506 2.31928,-1.45331 3.558496,-2.025182 0.635396,-0.293222 -1.170351,0.76872 -1.73413,1.183272 -2.399977,1.76473 -4.597124,3.829606 -6.843646,5.780575 -4.146483,3.710689 -8.158202,7.592998 -11.681373,11.910302 -0.948971,1.162873 -1.846367,2.366892 -2.769553,3.550339 0,0 -5.559484,2.388261 -5.559484,2.388261 v 0 c 0.893559,-1.18209 1.757219,-2.387384 2.680678,-3.546267 3.441264,-4.318577 7.387972,-8.199751 11.458519,-11.917659 2.23494,-1.955417 4.420438,-4.014642 6.775972,-5.82633 2.950063,-2.268958 5.389027,-3.344546 9.074489,-5.463845 4.825753,-2.356138 9.868276,-4.233694 15.07657,-5.560736 4.328436,-1.1053 8.663772,-2.200491 13.086906,-2.86489 5.824116,-1.031527 11.758742,-2.003435 17.670653,-1.094604 0.978124,0.239846 1.971994,0.422738 2.934366,0.719539 3.257156,1.00452 6.112187,2.819712 8.971067,4.617422 0,0 -5.557263,3.558238 -5.557263,3.558238 z"
       inkscape:connector-curvature="0"
       style="fill:#111111;fill-opacity:1;stroke-width:0.31172362" />
    <path
       id="path111"
       d="m 106.1736,216.0331 c -1.32473,-4.6602 -2.40411,-9.41094 -2.92368,-14.23493 -0.13313,-1.23596 -0.18846,-2.47908 -0.28269,-3.71862 -0.0332,-5.24714 0.281,-10.67865 2.12092,-15.65666 1.39596,-3.77682 2.23155,-4.58019 4.48911,-7.95613 0,0 5.51528,-2.40837 5.51528,-2.40837 v 0 c -2.2156,3.23024 -3.11393,4.11216 -4.49635,7.74589 -1.8614,4.89278 -2.17065,10.26651 -2.16301,15.43776 0.0932,1.2248 0.14561,2.45337 0.27958,3.6744 0.5181,4.722 1.54433,9.42297 3.19902,13.87751 0,0 -5.73818,3.23915 -5.73818,3.23915 z"
       inkscape:connector-curvature="0"
       style="fill:#111111;fill-opacity:1;stroke-width:0.31172362" />
    <path
       id="path113"
       d="m 129.70655,244.10508 c -0.44222,-0.0118 -0.88431,-0.0395 -1.32665,-0.0348 -3.54553,0.0377 -7.08343,0.22754 -10.63151,0.21692 -5.01419,-0.015 -5.78637,-0.10014 -10.87913,-0.31784 -5.95986,-0.49808 -11.954584,-1.20436 -17.705237,-2.93191 -1.908384,-0.57331 -3.812636,-1.19988 -5.617478,-2.04437 -5.034352,-2.35556 -5.864428,-3.56571 -10.097214,-7.17426 0,0 4.910569,-3.06701 4.910569,-3.06701 v 0 c 4.241973,3.53282 5.024371,4.66886 10.031031,6.97247 7.183551,3.3052 15.481939,4.13021 23.257259,4.80146 1.87415,0.0666 3.74748,0.16293 5.62246,0.19972 5.9368,0.11651 11.85381,-0.22494 17.77937,-0.50266 0,0 -5.34347,3.88226 -5.34347,3.88226 z"
       inkscape:connector-curvature="0"
       style="fill:#111111;fill-opacity:1;stroke-width:0.31172362" />
    <path
       id="path115"
       d="m 69.312259,163.79437 c -6.366178,-1.71699 -12.673638,-4.02081 -18.405102,-7.31993 -1.825534,-1.05081 -3.54681,-2.27317 -5.320212,-3.40975 -1.762877,-1.37974 -3.525753,-2.75949 -5.288628,-4.13922 0,0 4.854046,-3.05974 4.854046,-3.05974 v 0 c 1.768473,1.35431 3.536949,2.70862 5.305423,4.06293 1.78242,1.10709 3.511711,2.30468 5.347261,3.32123 3.401397,1.88375 6.388748,3.07646 10.018489,4.36626 2.115783,0.75183 4.670545,1.53536 6.899323,2.04354 0.644413,0.14692 1.301645,0.2305 1.952468,0.34576 0,0 -5.363068,3.78892 -5.363068,3.78892 z"
       inkscape:connector-curvature="0"
       style="fill:#111111;fill-opacity:1;stroke-width:0.31172362" />
    <path
       id="path117"
       d="m 154.62308,249.65893 c -0.26856,-0.74406 -0.57666,-1.47502 -0.80568,-2.23219 -2.84322,-9.40031 -4.53564,-19.83899 -4.89182,-29.62245 -0.13389,-3.67766 0.047,-7.36005 0.0705,-11.04007 1.9235,-16.01905 0.53085,-7.95605 4.25769,-24.17509 0,0 4.41991,-2.12881 4.41991,-2.12881 v 0 c -3.6296,16.08986 -2.28974,8.09422 -4.10156,23.97307 0.0138,3.64267 -0.13737,7.2897 0.0414,10.92802 0.46673,9.50456 2.32155,20.02281 5.74588,28.9647 0.27621,0.72124 0.64633,1.40295 0.96951,2.10442 0,0 -5.70581,3.2284 -5.70581,3.2284 z"
       inkscape:connector-curvature="0"
       style="fill:#111111;fill-opacity:1;stroke-width:0.31172362" />
    <path
       id="path121"
       d="m 107.69905,43.103721 c 5.95088,1.523133 11.60483,4.019384 17.25177,6.396963 3.89966,1.711506 7.81088,3.425821 11.56293,5.448555 2.14998,1.159056 4.15204,2.313294 6.03724,3.878144 0.90216,0.748856 1.69767,1.617602 2.54651,2.426407 3.14223,3.651842 1.58872,1.698815 4.62576,5.886545 0,0 -5.26335,3.119278 -5.26335,3.119278 v 0 c -3.08577,-4.07865 -1.53244,-2.167371 -4.63191,-5.756516 -0.83569,-0.784689 -1.6232,-1.62408 -2.50708,-2.354069 -1.88533,-1.557071 -3.78289,-2.665819 -5.92395,-3.840285 -3.71775,-2.039361 -7.59443,-3.772165 -11.48993,-5.438212 -5.72902,-2.339816 -11.49618,-4.862408 -17.61318,-5.98634 0,0 5.40519,-3.78047 5.40519,-3.78047 z"
       inkscape:connector-curvature="0"
       style="fill:#111111;fill-opacity:1;stroke-width:0.31172362" />
  </g>
</svg>
