<?xml version="1.0" encoding="UTF-8" standalone="no"?>
<!-- Created with Inkscape (http://www.inkscape.org/) -->

<svg
   xmlns:dc="http://purl.org/dc/elements/1.1/"
   xmlns:cc="http://creativecommons.org/ns#"
   xmlns:rdf="http://www.w3.org/1999/02/22-rdf-syntax-ns#"
   xmlns:svg="http://www.w3.org/2000/svg"
   xmlns="http://www.w3.org/2000/svg"
   xmlns:sodipodi="http://sodipodi.sourceforge.net/DTD/sodipodi-0.dtd"
   xmlns:inkscape="http://www.inkscape.org/namespaces/inkscape"
   width="210mm"
   height="297mm"
   viewBox="0 0 210 297"
   version="1.1"
   id="svg8"
   inkscape:version="0.92.4 5da689c313, 2019-01-14"
   sodipodi:docname="tree.svg">
  <defs
     id="defs2" />
  <sodipodi:namedview
     id="base"
     pagecolor="#ffffff"
     bordercolor="#666666"
     borderopacity="1.0"
     inkscape:pageopacity="0.0"
     inkscape:pageshadow="2"
     inkscape:zoom="0.7"
     inkscape:cx="439.54443"
     inkscape:cy="539.74805"
     inkscape:document-units="mm"
     inkscape:current-layer="layer1"
     showgrid="false"
     inkscape:window-width="956"
     inkscape:window-height="1034"
     inkscape:window-x="962"
     inkscape:window-y="44"
     inkscape:window-maximized="1"
     inkscape:pagecheckerboard="true" />
  <metadata
     id="metadata5">
    <rdf:RDF>
      <cc:Work
         rdf:about="">
        <dc:format>image/svg+xml</dc:format>
        <dc:type
           rdf:resource="http://purl.org/dc/dcmitype/StillImage" />
        <dc:title />
      </cc:Work>
    </rdf:RDF>
  </metadata>
  <g
     inkscape:label="Vrstva 1"
     inkscape:groupmode="layer"
     id="layer1">
    <path
       id="path10"
       d="m 104.36481,278.04855 c -0.98182,-5.8236 -1.66598,-11.69099 -2.43314,-17.54525 -0.93487,-6.55817 -1.65614,-13.14288 -2.375328,-19.72736 -0.394121,-4.385 -1.224744,-8.76512 -1.162497,-13.18281 0.01082,-0.76318 0.07766,-1.52453 0.116523,-2.28678 0.356468,-4.05763 1.593132,-7.98292 3.285152,-11.67493 0.35712,-0.77922 0.76362,-1.53485 1.14543,-2.30226 2.22369,-4.38675 5.5218,-8.02921 8.76514,-11.66941 3.86151,-4.39102 7.47348,-8.99476 11.11699,-13.56637 2.12705,-2.65805 4.33456,-5.26687 6.12791,-8.17039 0.98926,-1.60166 1.17821,-2.07055 2.00287,-3.72333 1.51943,-3.30428 2.29226,-6.86959 3.50885,-10.28411 1.31953,-3.3507 3.46933,-6.08767 5.99211,-8.60657 2.89682,-2.39391 6.19987,-4.42852 9.774,-5.62637 0,0 -4.36639,3.40613 -4.36639,3.40613 v 0 c -2.47589,0.93279 -1.42016,0.6192 2.27168,-1.66692 0.43369,-0.26855 -0.89168,0.49856 -1.3123,0.78713 -0.45553,0.31253 -0.87442,0.67539 -1.31163,1.01307 -2.58335,2.4664 -4.67877,5.05543 -6.08131,8.37748 -1.26954,3.42558 -2.0412,7.01531 -3.53031,10.36091 -0.83374,1.69368 -1.016,2.15565 -2.01555,3.79917 -1.79342,2.94882 -4.01813,5.59091 -6.19726,8.25585 -3.64018,4.54707 -7.21154,9.15447 -11.02512,13.55853 -3.22898,3.62536 -6.57279,7.20727 -8.83803,11.54888 -0.38793,0.75722 -0.80231,1.50148 -1.1638,2.27168 -1.70096,3.62394 -2.92023,7.49835 -3.32545,11.4886 -0.0466,0.75157 -0.12117,1.50192 -0.1402,2.2547 -0.11163,4.41681 0.65995,8.81249 1.02266,13.20006 0.71337,6.58833 1.45041,13.17469 2.31896,19.74464 0.74539,5.78989 1.41038,11.6143 2.78871,17.29612 0,0 -4.95867,2.66991 -4.95867,2.66991 z"
       inkscape:connector-curvature="0"
       style="fill:#fdfdfd;fill-opacity:1;stroke-width:0.26680681" />
    <path
       id="path12"
       d="m 93.663201,271.42288 c -1.485577,-3.90922 -2.699024,-7.90593 -3.720751,-11.95881 -1.459743,-6.455 -1.454362,-13.11209 -1.392563,-19.69448 -0.02161,-3.29346 0.210998,-6.57233 0.457786,-9.85286 0.417366,-4.83637 1.01258,-9.65323 1.397289,-14.4932 0.158883,-2.1586 0.330838,-4.3438 -0.0094,-6.49529 -0.191157,-1.20874 -0.381355,-1.76425 -0.709183,-2.95423 -0.737123,-2.18127 -1.62686,-4.32396 -2.756998,-6.33369 -0.521172,-0.92682 -1.461503,-2.36601 -2.018198,-3.2363 -2.058159,-3.16871 -4.137612,-6.33156 -6.455129,-9.31941 -1.845969,-2.3799 -2.397192,-2.93684 -4.391736,-5.20718 -4.623704,-4.94469 -9.620467,-9.52349 -14.601727,-14.10187 -3.380546,-3.11399 -6.997102,-5.95524 -10.44945,-8.98674 -2.263786,-1.98784 -2.47848,-2.23301 -4.646273,-4.29573 -3.856537,-3.93906 -7.792765,-7.84889 -11.218477,-12.18047 -0.856314,-1.08274 -1.647617,-2.21535 -2.471427,-3.32303 -4.129436,-5.99254 -8.175128,-12.04151 -12.17872,-18.11862 0,0 4.471077,-2.61206 4.471077,-2.61206 v 0 c 3.903852,6.12648 7.88999,12.20272 12.124216,18.10763 0.835227,1.08875 1.640943,2.2008 2.505677,3.26627 3.472524,4.27862 7.427428,8.14567 11.261696,12.09154 2.157807,2.06097 2.361517,2.29522 4.613551,4.28467 3.4435,3.04202 7.031419,5.91821 10.418653,9.02457 5.014367,4.57223 10.057761,9.13397 14.650411,14.13827 0.761314,0.8646 1.539526,1.71462 2.283944,2.59382 3.187429,3.76451 6.023882,7.80718 8.77192,11.89802 0.737862,1.11359 1.423871,2.1024 2.079434,3.26215 1.152461,2.03882 2.042561,4.21998 2.832608,6.41988 0.342746,1.184 0.563341,1.81428 0.766683,3.02317 0.37052,2.2028 0.175633,4.44023 -0.04402,6.647 -0.460002,4.80814 -1.033535,9.60957 -1.302701,14.43287 -0.188405,3.30746 -0.565267,6.60341 -0.64345,9.91826 -0.192893,6.542 -0.18963,13.15913 1.327247,19.5663 1.04372,3.99175 2.238832,7.96056 3.97418,11.71424 0,0 -4.926158,2.77531 -4.926158,2.77531 z"
       inkscape:connector-curvature="0"
       style="fill:#fdfdfd;fill-opacity:1;stroke-width:0.26680681" />
    <path
       id="path14"
       d="m 120.72503,184.52009 c -2.13637,-4.89067 -2.32052,-10.3119 -2.52389,-15.5606 -0.10581,-5.95064 0.1392,-12.00135 1.9246,-17.72767 0.38567,-1.23692 0.88692,-2.43481 1.33038,-3.6522 2.19319,-4.83909 4.57878,-9.59391 7.00831,-14.31813 1.0282,-1.99932 2.03184,-4.01278 3.13445,-5.97204 1.10876,-1.97018 2.33122,-3.87415 3.49683,-5.81124 0,0 4.35717,-1.92973 4.35717,-1.92973 v 0 c -1.16724,1.92694 -2.39886,3.81633 -3.50172,5.78081 -1.0906,1.94264 -2.07381,3.9439 -3.07503,5.93408 -2.34408,4.65942 -4.55235,9.38977 -6.7291,14.12901 -0.43546,1.19513 -0.9247,2.37201 -1.30638,3.58539 -1.78802,5.68436 -2.14075,11.68804 -2.02672,17.6069 0.23217,5.11362 0.38943,10.53159 2.83727,15.1601 0,0 -4.92617,2.77532 -4.92617,2.77532 z"
       inkscape:connector-curvature="0"
       style="fill:#fdfdfd;fill-opacity:1;stroke-width:0.26680681" />
    <path
       id="path16"
       d="m 146.02187,163.93628 c 0.48498,-0.27192 1.93189,-1.10148 1.45493,-0.81574 -0.69138,0.4142 -2.78378,1.62517 -2.09835,1.2012 5.64941,-3.49448 1.32251,-0.55466 7.3749,-4.5063 4.24943,-2.77448 3.80037,-2.55239 7.82542,-5.64553 5.14434,-4.29415 9.65948,-9.33524 13.2403,-15.00918 2.58446,-4.09517 3.19458,-5.70803 5.29758,-10.10478 3.21919,-7.32326 5.5865,-15.00432 7.28241,-22.8173 0.41429,-1.90864 0.73815,-3.83579 1.10723,-5.75368 0,0 4.3995,-2.136689 4.3995,-2.136689 v 0 c -0.37569,1.929029 -0.71056,3.866449 -1.12707,5.787069 -1.69733,7.82665 -3.99205,15.54681 -7.20371,22.89181 -2.02721,4.33236 -2.6986,6.09943 -5.19424,10.14552 -3.52481,5.71467 -8.00855,10.79403 -13.12388,15.12872 -1.27231,0.99069 -2.51455,2.02128 -3.81693,2.97208 -6.26371,4.57281 -13.11879,8.27767 -19.8044,12.17143 0,0 4.38631,-3.50863 4.38631,-3.50863 z"
       inkscape:connector-curvature="0"
       style="fill:#fdfdfd;fill-opacity:1;stroke-width:0.26680681" />
    <path
       id="path18"
       d="m 43.960872,146.56143 c 1.875161,-5.32785 2.342261,-10.9889 2.68786,-16.58354 0.135119,-4.83766 0.208118,-9.75007 -0.858771,-14.50523 -0.825383,-3.67879 -1.408228,-4.71585 -2.831976,-8.32427 -2.972338,-6.38923 -6.753148,-12.384241 -10.948579,-18.037704 -2.206244,-2.972979 -3.330333,-4.219001 -5.675349,-6.993632 -0.819645,-0.910883 -1.639291,-1.821771 -2.458936,-2.732657 0,0 4.451647,-2.688661 4.451647,-2.688661 v 0 c 0.797626,0.929556 1.595256,1.859112 2.392886,2.788669 0.905609,1.105612 1.832137,2.194419 2.716831,3.316838 5.357558,6.797184 10.109524,14.112799 13.930989,21.881807 1.467174,3.51554 2.154576,4.73552 3.019417,8.35007 1.145591,4.78792 1.004023,9.74736 0.877564,14.6266 -0.301763,5.53834 -0.686125,11.11864 -2.196455,16.4843 0,0 -5.107128,2.41741 -5.107128,2.41741 z"
       inkscape:connector-curvature="0"
       style="fill:#fdfdfd;fill-opacity:1;stroke-width:0.26680681" />
    <path
       id="path20"
       d="m 58.719153,163.92394 c -1.489771,1.22675 -3.117328,2.28095 -4.783457,3.25048 -2.331916,1.35694 -4.665611,2.71163 -7.026758,4.01704 -1.902602,1.05189 -3.519873,1.72468 -5.505709,2.61391 -6.339002,2.62897 -13.051123,4.3759 -19.814626,5.50696 -1.688727,0.28241 -3.38985,0.48488 -5.084773,0.72734 0,0 3.996631,-2.99381 3.996631,-2.99381 v 0 c 1.70018,-0.25655 3.406892,-0.47303 5.100542,-0.76965 6.819315,-1.19435 13.566303,-3.03217 19.93798,-5.75317 0.943902,-0.43256 1.897728,-0.84409 2.831701,-1.2977 0.903312,-0.43871 1.69417,-1.18083 2.678728,-1.37853 0.810585,-0.16276 -1.353746,0.98765 -2.131301,1.26862 -0.740776,0.26767 1.354973,-0.80408 2.018834,-1.22799 0.524147,-0.33467 1.03714,-0.68692 1.544109,-1.04709 0.35574,-0.25273 0.695425,-0.52732 1.043135,-0.79099 0,0 5.194964,-2.12542 5.194964,-2.12542 z"
       inkscape:connector-curvature="0"
       style="fill:#fdfdfd;fill-opacity:1;stroke-width:0.26680681" />
    <path
       id="path22"
       d="m 68.311145,164.96838 c 0.611396,-6.41338 1.012784,-12.86213 0.825456,-19.30768 -0.05567,-1.91553 -0.199835,-3.82748 -0.299752,-5.74123 -0.300108,-7.00582 -2.283366,-13.71839 -4.104065,-20.43354 0,0 4.048378,-2.20458 4.048378,-2.20458 v 0 c 1.949086,6.68745 4.061752,13.36799 4.416846,20.38469 0.117798,1.91301 0.276071,3.82395 0.353391,5.73901 0.256401,6.35034 -0.06554,12.69932 -0.228504,19.04669 0,0 -5.01175,2.51664 -5.01175,2.51664 z"
       inkscape:connector-curvature="0"
       style="fill:#fdfdfd;fill-opacity:1;stroke-width:0.26680681" />
    <path
       id="path24"
       d="m 71.796234,124.75373 c 2.002656,-5.72904 4.839593,-11.16475 8.072484,-16.29125 1.110383,-1.76077 2.302185,-3.46886 3.453277,-5.2033 3.235747,-4.482093 4.909375,-7.004515 8.583753,-11.230626 3.587406,-4.126083 7.353556,-7.820767 11.359422,-11.536871 1.98199,-1.838614 3.98786,-3.653114 6.0472,-5.404669 1.99859,-1.699896 4.08186,-3.29765 6.12279,-4.946476 8.07588,-5.873675 4.00126,-3.068151 12.21624,-8.427688 0,0 4.36969,-1.703671 4.36969,-1.703671 v 0 c -8.27466,5.34899 -4.16907,2.548201 -12.30905,8.413636 -2.05375,1.645641 -4.15117,3.23822 -6.16125,4.936924 -2.0653,1.745365 -4.07476,3.556842 -6.06084,5.391849 -4.04313,3.735591 -7.662458,7.275218 -11.269122,11.434623 -3.672098,4.23487 -5.240801,6.634859 -8.460143,11.128469 -1.124972,1.71383 -2.292604,3.40039 -3.374917,5.14147 -3.085192,4.96303 -5.816507,10.25055 -7.504847,15.8618 0,0 -5.084687,2.43578 -5.084687,2.43578 z"
       inkscape:connector-curvature="0"
       style="fill:#fdfdfd;fill-opacity:1;stroke-width:0.26680681" />
    <path
       id="path26"
       d="M 40.020597,90.103418 C 39.795804,82.922838 39.006125,75.782326 38.074745,68.66445 37.178583,63.191397 37.641462,65.801534 36.70355,60.83097 c 0,0 4.59765,-2.443951 4.59765,-2.443951 v 0 c 0.816205,5.04301 0.400699,2.400728 1.239485,7.927951 0.929964,7.052883 1.723723,14.119214 2.4798,21.192334 0,0 -4.999888,2.596114 -4.999888,2.596114 z"
       inkscape:connector-curvature="0"
       style="fill:#fdfdfd;fill-opacity:1;stroke-width:0.26680681" />
    <path
       id="path28"
       d="m 41.182297,70.752604 c 3.290214,-5.203468 6.970684,-10.175141 10.871251,-14.936898 1.584858,-1.934774 3.169269,-3.874779 4.879131,-5.700021 1.889626,-2.01714 3.939682,-3.877768 5.909522,-5.816653 2.330823,-1.863393 4.552109,-3.872725 6.992464,-5.590177 2.604192,-1.832755 5.324528,-3.506871 8.114666,-5.041779 8.899611,-4.895843 13.162413,-7.035511 22.374759,-9.803185 9.06211,-2.72254 11.44536,-2.773691 20.80289,-4.254999 3.60829,-0.27995 7.21658,-0.559899 10.82488,-0.839851 0,0 -3.37087,2.490115 -3.37087,2.490115 v 0 c -3.60676,0.292756 -7.21352,0.585512 -10.82027,0.878268 -3.52746,0.573648 -7.08434,0.98896 -10.58236,1.720942 -8.195583,1.714973 -12.129206,3.178394 -19.919206,6.098724 -1.760839,0.660107 -3.56599,1.242079 -5.224918,2.127663 -7.256486,3.873724 -8.683532,5.461941 -14.978066,10.472593 -1.941091,1.912346 -3.964424,3.744655 -5.82327,5.737036 -1.681437,1.802226 -3.238322,3.718255 -4.787174,5.635627 -1.380498,1.708958 -2.690365,3.474216 -3.997873,5.239649 -2.213557,2.988801 -4.351836,6.040309 -6.152611,9.299646 0,0 -5.112945,2.2833 -5.112945,2.2833 z"
       inkscape:connector-curvature="0"
       style="fill:#fdfdfd;fill-opacity:1;stroke-width:0.26680681" />
    <path
       id="path30"
       d="m 173.77173,120.98992 c -8.28085,-6.52199 -15.02466,-14.73816 -21.7078,-22.822327 -3.86081,-5.095005 -8.32676,-10.045251 -10.67166,-16.10013 -1.28133,-3.308587 -1.08736,-3.815168 -1.45957,-7.381764 0.0992,-1.499209 0.19837,-2.998418 0.29756,-4.497627 0,0 4.55121,-2.282925 4.55121,-2.282925 v 0 c -0.0878,1.461318 -0.17548,2.922635 -0.26324,4.383949 0.36364,3.511379 0.18044,3.947079 1.39061,7.22555 2.23034,6.042327 6.43862,11.113997 10.22929,16.210357 6.65141,8.127507 13.49688,16.432027 22.36843,22.244967 0,0 -4.73483,3.01995 -4.73483,3.01995 z"
       inkscape:connector-curvature="0"
       style="fill:#fdfdfd;fill-opacity:1;stroke-width:0.26680681" />
    <path
       id="path32"
       d="m 152.55236,92.07571 c 0.90132,-8.14045 2.75639,-16.164695 5.60327,-23.850608 1.02802,-2.775392 2.24616,-5.476608 3.36924,-8.21491 6.99782,-12.104107 3.00435,-6.098276 12.1391,-17.910964 0,0 3.77346,-1.620428 3.77346,-1.620428 v 0 c -8.92867,11.642702 -5.03256,5.723583 -11.84616,17.652476 -1.07584,2.703371 -2.25113,5.369257 -3.22754,8.110113 -2.66976,7.494249 -4.41042,15.368048 -4.8126,23.320347 0,0 -4.99877,2.513974 -4.99877,2.513974 z"
       inkscape:connector-curvature="0"
       style="fill:#fdfdfd;fill-opacity:1;stroke-width:0.26680681" />
    <path
       id="path34"
       d="m 176.5731,139.95733 c 4.80447,-3.54824 9.62659,-7.07181 14.30208,-10.78939 1.82606,-1.58358 3.77188,-3.08057 5.36997,-4.90981 0.38776,-0.44385 0.71893,-0.93413 1.07838,-1.4012 0,0 5.01815,-2.16274 5.01815,-2.16274 v 0 c -0.35977,0.49267 -0.684,1.01334 -1.07929,1.47799 -1.61437,1.89757 -3.64923,3.40098 -5.50594,5.03854 -4.58529,3.64622 -9.32082,7.09317 -13.9601,10.6694 0,0 -5.22325,2.07721 -5.22325,2.07721 z"
       inkscape:connector-curvature="0"
       style="fill:#fdfdfd;fill-opacity:1;stroke-width:0.26680681" />
    <path
       id="path40"
       d="m 113.7662,159.80201 c -2.68123,-4.34645 -4.24075,-9.31214 -5.31881,-14.27624 -0.35572,-1.63803 -0.59825,-3.29861 -0.89737,-4.94792 -0.42695,-4.81347 -0.71297,-5.82207 -0.33465,-10.71747 0.14602,-1.88964 0.48682,-3.75915 0.73022,-5.63874 0,0 4.4141,-2.17766 4.4141,-2.17766 v 0 c -0.24274,1.85977 -0.58295,3.7094 -0.72822,5.57932 -0.37638,4.84444 -0.0889,5.83367 0.34364,10.5973 0.30548,1.63123 0.54576,3.27602 0.91648,4.89367 1.10985,4.84298 2.77063,9.75186 5.72339,13.79872 0,0 -4.84878,2.88902 -4.84878,2.88902 z"
       inkscape:connector-curvature="0"
       style="fill:#fdfdfd;fill-opacity:1;stroke-width:0.26680681" />
    <path
       id="path48"
       d="m 56.513755,43.588765 c 0.712814,-4.815599 1.59776,-9.596176 2.746502,-14.326729 1.005394,-3.290795 1.844715,-6.720836 3.548715,-9.745482 0.37431,-0.664415 0.743315,-1.347686 1.25616,-1.912085 0.634193,-0.697944 1.434034,-1.225091 2.151048,-1.837635 0,0 4.942298,-1.988794 4.942298,-1.988794 v 0 c -0.715504,0.555786 -1.512291,1.020358 -2.146512,1.667358 -0.527835,0.538475 -0.91479,1.202866 -1.301524,1.850169 -1.776197,2.972929 -2.623226,6.402884 -3.660774,9.669359 -1.149305,4.650083 -2.102723,9.362696 -2.46966,14.146975 0,0 -5.066253,2.476864 -5.066253,2.476864 z"
       inkscape:connector-curvature="0"
       style="fill:#fdfdfd;fill-opacity:1;stroke-width:0.26680681" />
    <path
       id="path52"
       d="m 89.499687,83.383493 c -0.580767,-3.540092 -0.902963,-7.152315 -0.767411,-10.742767 0.03746,-0.992291 0.141888,-1.98092 0.212831,-2.971382 0.670408,-5.30127 1.82136,-10.703933 4.616994,-15.339235 0.629483,-1.043711 1.394512,-1.999419 2.091765,-2.999127 0.889689,-0.983317 1.779374,-1.966633 2.669069,-2.949952 0,0 4.760865,-1.997077 4.760865,-1.997077 v 0 c -0.88434,0.957418 -1.76867,1.914836 -2.65301,2.872254 -0.695699,0.972671 -1.45787,1.901083 -2.08711,2.918015 -2.816724,4.552179 -3.988395,9.881776 -4.657738,15.122291 -0.07057,0.97602 -0.176624,1.950119 -0.211727,2.928057 -0.12564,3.500374 0.189947,7.053237 0.984493,10.463534 0,0 -4.959021,2.695389 -4.959021,2.695389 z"
       inkscape:connector-curvature="0"
       style="fill:#fdfdfd;fill-opacity:1;stroke-width:0.26680681" />
    <path
       id="path54"
       d="m 95.815828,29.170578 c 0.500672,0.04985 0.999295,0.128916 1.502011,0.149537 1.823605,0.07481 4.755211,-0.0084 6.442601,-0.107699 5.56763,-0.327876 11.05646,-1.105906 16.56825,-1.92489 2.17038,-0.378658 4.34704,-0.723006 6.51116,-1.135972 3.87377,-0.739206 10.38585,-2.171547 14.17555,-3.035407 5.22676,-1.191436 10.1309,-2.329583 15.28734,-3.82261 2.61266,-0.756485 5.19046,-1.628588 7.78569,-2.442882 2.51447,-0.917841 5.02895,-1.83568 7.54341,-2.753521 0,0 -3.61651,2.825132 -3.61651,2.825132 v 0 c -2.51333,0.908205 -5.02665,1.81641 -7.53997,2.724615 -2.60256,0.811596 -5.18871,1.67788 -7.8077,2.434787 -5.37398,1.553119 -9.92798,2.607981 -15.36353,3.857263 -4.04862,0.930517 -10.16435,2.297853 -14.28575,3.091734 -2.17903,0.419738 -4.37084,0.770258 -6.55626,1.155384 -7.76097,1.184629 -15.73799,2.440801 -23.616862,2.329064 -0.543662,-0.0077 -1.085296,-0.06813 -1.627941,-0.102204 0,0 4.598511,-3.242331 4.598511,-3.242331 z"
       inkscape:connector-curvature="0"
       style="fill:#fdfdfd;fill-opacity:1;stroke-width:0.26680681" />
    <path
       id="path70"
       d="m 19.206317,129.97169 c -2.919125,-1.85411 -5.399556,-4.3419 -7.056978,-7.4009 -0.610643,-1.12702 -1.071212,-2.32912 -1.606818,-3.49369 -0.424377,-1.5613 -0.9641901,-3.09574 -1.2731323,-4.68392 -1.7443122,-8.96701 -1.045913,-19.209792 2.2129183,-27.751978 1.001478,-2.625113 2.43621,-5.063749 3.654314,-7.595622 1.665502,-2.37193 3.331002,-4.743859 4.996504,-7.115785 0,0 4.127326,-1.792725 4.127326,-1.792725 v 0 c -1.663738,2.343999 -3.327474,4.687998 -4.991212,7.031998 -1.212833,2.500163 -2.645589,4.905131 -3.6385,7.500497 -3.237077,8.461379 -3.848944,18.465725 -1.93327,27.310405 0.334397,1.54391 0.902563,3.02776 1.353844,4.54164 0.553291,1.12479 1.034416,2.28806 1.659875,3.37437 1.706233,2.96346 4.214836,5.39255 7.229615,6.98998 0,0 -4.734486,3.08573 -4.734486,3.08573 z"
       inkscape:connector-curvature="0"
       style="fill:#fdfdfd;fill-opacity:1;stroke-width:0.26680681" />
  </g>
</svg>
